# xmcd
#
# Track frame offsets: 
#        150
#        22279
#        44125
#        65698
#        81390
#        97101
#        125813
#        146293
#        165618
#        180566
#
# Disc length: 2603 seconds
#
# Revision: 0
# Processed by: cddbd v1.5.2PL0 Copyright (c) Steve Scherf et al.
# Submitted via: ExactAudioCopyFreeDBPlugin 1.0
#
DISCID=980a290a
DTITLE=Carolyn Fe - Sugat Ko
DYEAR=2018
DGENRE=blues
TTITLE0=One Minute To Midnight
TTITLE1=I Can't Breathe
TTITLE2=Sugar
TTITLE3=Jerusalem's Thorns
TTITLE4=Bring You Water
TTITLE5=Howzat
TTITLE6=Wanna Say We're Through
TTITLE7=All That Matters
TTITLE8=Nothin' Doin'
TTITLE9=Parayer
EXTD=
EXTT0=
EXTT1=
EXTT2=
EXTT3=
EXTT4=
EXTT5=
EXTT6=
EXTT7=
EXTT8=
EXTT9=
PLAYORDER=
